<?xml version="1.0" encoding="UTF-8"?>
<!DOCTYPE svg PUBLIC "-//W3C//DTD SVG 1.1//EN" "http://www.w3.org/Graphics/SVG/1.1/DTD/svg11.dtd">
<!-- Creator: CorelDRAW 2021 (64 Bit) -->
<svg xmlns="http://www.w3.org/2000/svg" xml:space="preserve" width="23.698mm" height="3.511mm" version="1.1" style="shape-rendering:geometricPrecision; text-rendering:geometricPrecision; image-rendering:optimizeQuality; fill-rule:evenodd; clip-rule:evenodd"
viewBox="0 0 2405.06 356.32"
 xmlns:xlink="http://www.w3.org/1999/xlink"
 xmlns:xodm="http://www.corel.com/coreldraw/odm/2003">
 <defs>
  <style type="text/css">
   <![CDATA[
    .fil1 {fill:#333333;fill-rule:nonzero}
    .fil0 {fill:#BD0000;fill-rule:nonzero}
   ]]>
  </style>
 </defs>
 <g id="Camada_x0020_1">
  <metadata id="CorelCorpID_0Corel-Layer"/>
  <g id="_1630406168416">
   <path class="fil0" d="M145.51 47.1l-92.34 0 0 105.41 78.83 0 0 46.18 -78.83 0 0 157.64 -53.17 0 0 -356.32 145.51 0 0 47.1zm175.83 0l-92.34 0 0 105.41 78.83 0 0 46.18 -78.83 0 0 157.64 -53.17 0 0 -356.32 145.51 0 0 47.1z"/>
   <path class="fil1" d="M538.69 269.9c0,17.25 -5.72,31.5 -17.11,42.6 -11.39,11.17 -25.78,16.76 -43.1,16.76l-75.12 0 0 -328.23 75.12 0c17.47,0 31.86,5.58 43.24,16.76 11.32,11.09 16.97,25.34 16.97,42.6l0 209.51zm-29.21 -2.93l0 -204.07c0,-10.75 -3.37,-19.49 -10.17,-26.14 -6.81,-6.66 -15.54,-9.95 -26.29,-9.95l-40.45 0 0 276.68 38.74 0c11.32,0 20.55,-3.22 27.56,-9.74 7.09,-6.52 10.61,-15.47 10.61,-26.77zm183.89 -74.33l-27.5 0 0 -42.53 -51.56 1.8 0 177.36 -27.92 0 0 -204.07 27.92 0 0 5.72c9.24,-1.43 18.55,-2.86 27.93,-4.44 11.17,-1.73 20.48,-2.58 27.93,-2.58 15.4,0 23.13,8.09 23.2,24.35l0 44.39zm64.01 136.62l-31.8 0 0 -36.95 31.8 0 0 36.95zm235.79 -302.45l-76.47 0 0 124.59 70.46 0 0 26.2 -70.46 0 0 151.66 -29.22 0 0 -328.23 105.69 0 0 25.78zm152.44 302.45l-27.49 0 0 -5.58c-11.03,1.5 -22.05,3 -33.16,4.36 -13.67,1.64 -24.7,2.51 -33,2.51 -15.18,0 -22.77,-8.09 -22.77,-24.35l0 -72.04c0.14,-16.11 7.59,-24.19 22.27,-24.35l67.09 0 0 -61.43 -60.14 0 0 34.36 -27.07 0 0 -33.94c0.14,-15.68 7.51,-23.56 22.2,-23.63l67.73 0c16.19,0.07 24.28,8.02 24.35,23.91l0 180.16zm-27.07 -25.35l0 -72.18 -62.29 0 0 73.47 62.29 -1.29zm189.9 -18.9c0,12.68 -4.16,23.27 -12.46,31.64 -8.38,8.38 -18.84,12.6 -31.36,12.6l-73.47 0 0 -328.23 27.92 0 0 129.74c10.89,-1.36 21.77,-2.72 32.66,-4.08 13.74,-1.86 24.56,-2.79 32.36,-2.79 16.25,0 24.35,7.59 24.35,22.76l0 138.35zm-27.93 -3.72l0 -131.18 -61.44 1.72 0 152.95 38.6 0c15.25,0 22.84,-7.8 22.84,-23.48zm103.04 -200.78l-28.36 0 0 -35.65 28.36 0 0 35.65zm-0.44 248.76l-27.49 0 0 -204.07 27.49 0 0 204.07zm164.62 -24.35c-0.15,16.26 -8.24,24.35 -24.35,24.35l-68.6 0c-16.12,0 -24.2,-8.09 -24.35,-24.35l0 -155.38c0.14,-16.26 8.23,-24.35 24.35,-24.35l68.6 0c16.11,0 24.19,8.09 24.35,24.35l0 155.38zm-27.93 -0.14l0 -155.09 -61.44 0 0 155.09 61.44 0zm266.65 -277.96l-76.47 0 0 124.59 70.46 0 0 26.2 -70.46 0 0 151.66 -29.22 0 0 -328.23 105.69 0 0 25.78zm152.44 302.45l-27.49 0 0 -5.58c-11.03,1.5 -22.05,3 -33.16,4.36 -13.67,1.64 -24.7,2.51 -33,2.51 -15.18,0 -22.77,-8.09 -22.77,-24.35l0 -72.04c0.14,-16.11 7.59,-24.19 22.27,-24.35l67.09 0 0 -61.43 -60.14 0 0 34.36 -27.07 0 0 -33.94c0.14,-15.68 7.51,-23.56 22.2,-23.63l67.73 0c16.19,0.07 24.28,8.02 24.35,23.91l0 180.16zm-27.07 -25.35l0 -72.18 -62.29 0 0 73.47 62.29 -1.29zm179.59 -111.27l-27.5 0 0 -42.53 -51.56 1.8 0 177.36 -27.92 0 0 -204.07 27.92 0 0 5.72c9.24,-1.43 18.55,-2.86 27.93,-4.44 11.17,-1.73 20.48,-2.58 27.93,-2.58 15.4,0 23.13,8.09 23.2,24.35l0 44.39zm150.79 136.62l-27.49 0 0 -5.58c-11.03,1.5 -22.05,3 -33.16,4.36 -13.67,1.64 -24.7,2.51 -33,2.51 -15.18,0 -22.77,-8.09 -22.77,-24.35l0 -72.04c0.14,-16.11 7.59,-24.19 22.27,-24.35l67.09 0 0 -61.43 -60.14 0 0 34.36 -27.07 0 0 -33.94c0.14,-15.68 7.51,-23.56 22.2,-23.63l67.73 0c16.19,0.07 24.28,8.02 24.35,23.91l0 180.16zm-27.07 -25.35l0 -72.18 -62.29 0 0 73.47 62.29 -1.29zm189.9 25.35l-27.93 0 0 -179.16 -61.44 1.87 0 177.29 -27.92 0 0 -328.23 27.92 0 0 129.88c10.89,-1.43 21.77,-2.79 32.66,-4.22 13.74,-1.86 24.56,-2.79 32.36,-2.79 16.25,0 24.35,8.09 24.35,24.35l0 181.01z"/>
  </g>
 </g>
</svg>
